<?xml version="1.0" encoding="UTF-8" standalone="no"?>
<!-- Created with Inkscape (http://www.inkscape.org/) -->

<svg
   xmlns:dc="http://purl.org/dc/elements/1.1/"
   xmlns:cc="http://creativecommons.org/ns#"
   xmlns:rdf="http://www.w3.org/1999/02/22-rdf-syntax-ns#"
   xmlns:svg="http://www.w3.org/2000/svg"
   xmlns="http://www.w3.org/2000/svg"
   xmlns:sodipodi="http://sodipodi.sourceforge.net/DTD/sodipodi-0.dtd"
   xmlns:inkscape="http://www.inkscape.org/namespaces/inkscape"
   width="32.875664mm"
   height="20.292648mm"
   viewBox="0 0 32.875664 20.292649"
   version="1.1"
   id="svg8"
   sodipodi:docname="logo.svg"
   inkscape:version="0.92.4 (5da689c313, 2019-01-14)">
  <defs
     id="defs2" />
  <sodipodi:namedview
     id="base"
     pagecolor="#ffffff"
     bordercolor="#666666"
     borderopacity="1.0"
     inkscape:pageopacity="0.0"
     inkscape:pageshadow="2"
     inkscape:zoom="4"
     inkscape:cx="41.477275"
     inkscape:cy="39.662537"
     inkscape:document-units="mm"
     inkscape:current-layer="text12"
     showgrid="false"
     showguides="true"
     units="px"
     inkscape:window-width="1920"
     inkscape:window-height="1052"
     inkscape:window-x="0"
     inkscape:window-y="28"
     inkscape:window-maximized="1"
     inkscape:pagecheckerboard="false"
     showborder="true"
     borderlayer="false"
     inkscape:showpageshadow="false"
     fit-margin-top="0"
     fit-margin-left="0"
     fit-margin-right="0"
     fit-margin-bottom="0"
     inkscape:guide-bbox="true">
    <inkscape:grid
       type="xygrid"
       id="grid58"
       originx="-39.781997"
       originy="-225.55599" />
    <sodipodi:guide
       position="32.875664,9.1915025"
       orientation="1,0"
       id="guide4738"
       inkscape:locked="false" />
  </sodipodi:namedview>
  <metadata
     id="metadata5">
    <rdf:RDF>
      <cc:Work
         rdf:about="">
        <dc:format>image/svg+xml</dc:format>
        <dc:type
           rdf:resource="http://purl.org/dc/dcmitype/StillImage" />
        <dc:title></dc:title>
      </cc:Work>
    </rdf:RDF>
  </metadata>
  <g
     inkscape:label="Livello 1"
     inkscape:groupmode="layer"
     id="layer1"
     transform="translate(-38.532552,-51.672026)">
    <g
       aria-label="DATA.Loader.js"
       style="font-style:normal;font-variant:normal;font-weight:normal;font-stretch:normal;font-size:10.58333302px;line-height:1.25;font-family:Inter;-inkscape-font-specification:Inter;letter-spacing:0px;word-spacing:0px;fill:#000000;fill-opacity:1;stroke:none;stroke-width:0.5291667;stroke-miterlimit:4;stroke-dasharray:none;paint-order:stroke fill markers"
       id="text12">
      <path
         d="m 42.183563,61.546326 h -3.649826 v -9.8743 h 3.645006 q 1.509108,0 2.598753,0.593037 1.094467,0.588215 1.687502,1.697145 0.593037,1.104108 0.593037,2.642146 0,1.542861 -0.593037,2.651792 -0.588215,1.108929 -1.68268,1.701965 -1.094467,0.588215 -2.598755,0.588215 z m -1.263216,-2.034645 h 1.17161 q 0.829287,0 1.403037,-0.279644 0.578572,-0.284464 0.872681,-0.920894 0.298928,-0.641252 0.298928,-1.706789 0,-1.065537 -0.298928,-1.697144 -0.29893,-0.63643 -0.882324,-0.916074 -0.578572,-0.284464 -1.427144,-0.284464 h -1.13786 z"
         style="font-style:normal;font-variant:normal;font-weight:800;font-stretch:normal;font-family:Inter;-inkscape-font-specification:'Inter Ultra-Bold';letter-spacing:-0.79374999px;fill:#000000;stroke-width:0.67885822;stroke-miterlimit:4;stroke-dasharray:none;paint-order:stroke fill markers"
         id="path4672"
         inkscape:connector-curvature="0" />
      <path
         d="m 48.985646,61.546326 h -2.565004 l 3.331612,-9.8743 h 3.177326 l 3.331612,9.8743 h -2.565004 l -2.31911,-7.38644 h -0.07714 z"
         style="font-style:normal;font-variant:normal;font-weight:800;font-stretch:normal;font-family:Inter;-inkscape-font-specification:'Inter Ultra-Bold';letter-spacing:-0.79374999px;fill:#000000;stroke-width:0.67885822;stroke-miterlimit:4;stroke-dasharray:none;paint-order:stroke fill markers"
         id="path4674"
         inkscape:connector-curvature="0"
         sodipodi:nodetypes="ccccccccc" />
      <path
         d="m 54.736654,53.610243 v -1.938217 h 8.345906 v 1.938217 h -2.994111 v 7.936083 h -2.352862 v -7.936083 z"
         style="font-style:normal;font-variant:normal;font-weight:800;font-stretch:normal;font-family:Inter;-inkscape-font-specification:'Inter Ultra-Bold';letter-spacing:-0.79374999px;fill:#000000;stroke-width:0.67885822;stroke-miterlimit:4;stroke-dasharray:none;paint-order:stroke fill markers"
         id="path4676"
         inkscape:connector-curvature="0" />
      <path
         d="m 64.132668,61.546326 h -2.565004 l 3.331613,-9.8743 h 3.177325 l 3.331614,9.8743 h -2.565004 l -2.319111,-7.38644 h -0.07714 z"
         style="font-style:normal;font-variant:normal;font-weight:800;font-stretch:normal;font-family:Inter;-inkscape-font-specification:'Inter Ultra-Bold';letter-spacing:-0.79374999px;fill:#000000;stroke-width:0.67885822;stroke-miterlimit:4;stroke-dasharray:none;paint-order:stroke fill markers"
         id="path4678"
         inkscape:connector-curvature="0"
         sodipodi:nodetypes="ccccccccc" />
      <path
         d="m 64.218099,69.077573 q -0.405894,0 -0.695282,-0.28563 -0.28563,-0.28563 -0.281872,-0.691525 -0.0038,-0.398378 0.281872,-0.680249 0.289388,-0.28563 0.695282,-0.28563 0.383346,0 0.676492,0.28563 0.296904,0.281871 0.300663,0.680249 -0.0038,0.270597 -0.142815,0.492336 -0.135298,0.221739 -0.357037,0.353279 -0.217981,0.13154 -0.477303,0.13154 z"
         style="font-style:normal;font-variant:normal;font-weight:800;font-stretch:normal;font-family:Inter;-inkscape-font-specification:'Inter Ultra-Bold';letter-spacing:-0.79374999px;fill:#aad400;stroke-width:0.5291667;stroke-miterlimit:4;stroke-dasharray:none;paint-order:stroke fill markers"
         id="path4680"
         inkscape:connector-curvature="0" />
      <path
         d="m 38.532552,68.955518 v -6.196619 h 1.497718 v 4.98029 h 2.57789 v 1.216329 z"
         style="font-style:normal;font-variant:normal;font-weight:800;font-stretch:normal;font-family:Inter;-inkscape-font-specification:'Inter Ultra-Bold';letter-spacing:-0.79374999px;fill:#000080;stroke-width:0.42601761;stroke-miterlimit:4;stroke-dasharray:none;paint-order:stroke fill markers"
         id="path4682"
         inkscape:connector-curvature="0" />
      <path
         d="m 44.905569,69.043264 q -0.732218,0 -1.258689,-0.299545 -0.523444,-0.302568 -0.807859,-0.841142 -0.28139,-0.541599 -0.28139,-1.255663 0,-0.717089 0.28139,-1.255662 0.284415,-0.5416 0.807859,-0.841143 0.526471,-0.302569 1.258689,-0.302569 0.732217,0 1.255663,0.302569 0.52647,0.299543 0.807859,0.841143 0.284416,0.538573 0.284416,1.255662 0,0.714064 -0.284416,1.255663 -0.281389,0.538574 -0.807859,0.841142 -0.523446,0.299545 -1.255663,0.299545 z m 0.0091,-1.116482 q 0.266261,0 0.450828,-0.163387 0.184567,-0.163387 0.281389,-0.453854 0.09985,-0.290467 0.09985,-0.671704 0,-0.387288 -0.09985,-0.677755 -0.09682,-0.290466 -0.281389,-0.453854 -0.184567,-0.163387 -0.450828,-0.163387 -0.275338,0 -0.465957,0.163387 -0.187593,0.163388 -0.287441,0.453854 -0.09682,0.290467 -0.09682,0.677755 0,0.381237 0.09682,0.671704 0.09985,0.290467 0.287441,0.453854 0.190619,0.163387 0.465957,0.163387 z"
         style="font-style:normal;font-variant:normal;font-weight:800;font-stretch:normal;font-family:Inter;-inkscape-font-specification:'Inter Ultra-Bold';letter-spacing:-0.79374999px;fill:#000080;stroke-width:0.42601761;stroke-miterlimit:4;stroke-dasharray:none;paint-order:stroke fill markers"
         id="path4684"
         inkscape:connector-curvature="0" />
      <path
         d="m 48.682543,69.034186 q -0.444777,0 -0.789706,-0.148259 -0.341903,-0.151285 -0.541599,-0.453854 -0.19667,-0.305595 -0.19667,-0.7655 0,-0.387289 0.136156,-0.65355 0.136157,-0.26626 0.375186,-0.432674 0.23903,-0.166413 0.550676,-0.251132 0.311647,-0.08774 0.665653,-0.118002 0.396366,-0.03631 0.638421,-0.07564 0.242055,-0.04236 0.350981,-0.118002 0.11195,-0.07867 0.11195,-0.220876 v -0.01513 q 0,-0.232978 -0.160362,-0.360057 -0.160361,-0.127079 -0.432674,-0.127079 -0.293492,0 -0.472008,0.127079 -0.178516,0.127079 -0.226927,0.350981 l -1.364588,-0.04841 q 0.06052,-0.423597 0.311647,-0.756423 0.254158,-0.335852 0.69591,-0.526471 0.444777,-0.193644 1.068069,-0.193644 0.444776,0 0.819963,0.105899 0.375185,0.102873 0.65355,0.302569 0.278363,0.19667 0.429648,0.484111 0.15431,0.287441 0.15431,0.656575 V 68.95552 H 50.06831 v -0.6475 H 50.032 q -0.124053,0.236004 -0.317697,0.399391 -0.190619,0.163388 -0.450829,0.245081 -0.257184,0.08169 -0.580932,0.08169 z m 0.45688,-0.968222 q 0.239029,0 0.429648,-0.09682 0.193644,-0.09682 0.30862,-0.266261 0.114977,-0.172464 0.114977,-0.399391 v -0.441751 q -0.06354,0.03328 -0.15431,0.06051 -0.08775,0.02724 -0.193645,0.05144 -0.105899,0.02421 -0.217849,0.04236 -0.111951,0.01815 -0.214825,0.03328 -0.208772,0.03328 -0.357031,0.102874 -0.145234,0.06959 -0.223901,0.181541 -0.07565,0.108925 -0.07565,0.26021 0,0.229952 0.163388,0.35098 0.166413,0.121028 0.420571,0.121028 z"
         style="font-style:normal;font-variant:normal;font-weight:800;font-stretch:normal;font-family:Inter;-inkscape-font-specification:'Inter Ultra-Bold';letter-spacing:-0.79374999px;fill:#000080;stroke-width:0.42601761;stroke-miterlimit:4;stroke-dasharray:none;paint-order:stroke fill markers"
         id="path4686"
         inkscape:connector-curvature="0" />
      <path
         d="m 53.423198,69.022084 q -0.514367,0 -0.934939,-0.266262 -0.420571,-0.266261 -0.671704,-0.798782 -0.251132,-0.532522 -0.251132,-1.322228 0,-0.819963 0.260209,-1.349459 0.26021,-0.529496 0.680782,-0.783655 0.423597,-0.254158 0.910733,-0.254158 0.366109,0 0.626319,0.127079 0.260209,0.124053 0.429648,0.320724 0.169438,0.196669 0.257184,0.408468 h 0.03026 v -2.344912 h 1.479564 v 6.196619 h -1.46444 V 68.202121 H 54.7303 q -0.0938,0.214823 -0.266262,0.402417 -0.172464,0.187593 -0.432673,0.302569 -0.257185,0.114977 -0.608165,0.114977 z m 0.514368,-1.152789 q 0.269287,0 0.459905,-0.151286 0.190619,-0.154309 0.293493,-0.432673 0.102874,-0.278364 0.102874,-0.65355 0,-0.381237 -0.102874,-0.656575 -0.09985,-0.275338 -0.293493,-0.423597 -0.190618,-0.148259 -0.459905,-0.148259 -0.275338,0 -0.465956,0.151284 -0.190619,0.151285 -0.290467,0.426623 -0.09682,0.275338 -0.09682,0.650524 0,0.375186 0.09985,0.65355 0.09985,0.278364 0.287441,0.432673 0.190618,0.151286 0.465956,0.151286 z"
         style="font-style:normal;font-variant:normal;font-weight:800;font-stretch:normal;font-family:Inter;-inkscape-font-specification:'Inter Ultra-Bold';letter-spacing:-0.79374999px;fill:#000080;stroke-width:0.42601761;stroke-miterlimit:4;stroke-dasharray:none;paint-order:stroke fill markers"
         id="path4688"
         inkscape:connector-curvature="0" />
      <path
         d="m 58.717556,69.043264 q -0.729191,0 -1.258687,-0.287442 -0.526471,-0.290466 -0.810886,-0.826014 -0.28139,-0.538573 -0.28139,-1.279867 0,-0.720116 0.284415,-1.258689 0.284415,-0.5416 0.801809,-0.841143 0.517393,-0.302569 1.219354,-0.302569 0.496214,0 0.907708,0.15431 0.411494,0.154311 0.711038,0.45688 0.299543,0.302569 0.465956,0.747346 0.166414,0.441752 0.166414,1.013607 v 0.369135 h -4.039301 v -0.859297 h 2.662611 q -0.0031,-0.236004 -0.111951,-0.420571 -0.108925,-0.184568 -0.299544,-0.287442 -0.187593,-0.105899 -0.432674,-0.105899 -0.248106,0 -0.444777,0.111951 -0.19667,0.108925 -0.311646,0.299544 -0.114976,0.187593 -0.121028,0.426623 v 0.874425 q 0,0.284415 0.111951,0.499239 0.11195,0.211798 0.317698,0.329801 0.205746,0.118002 0.490162,0.118002 0.19667,0 0.357032,-0.05446 0.160361,-0.05446 0.275338,-0.160363 0.114976,-0.105899 0.172464,-0.260209 l 1.358536,0.03934 q -0.08472,0.45688 -0.37216,0.795757 -0.284415,0.335851 -0.747346,0.523445 -0.462931,0.184567 -1.071096,0.184567 z"
         style="font-style:normal;font-variant:normal;font-weight:800;font-stretch:normal;font-family:Inter;-inkscape-font-specification:'Inter Ultra-Bold';letter-spacing:-0.79374999px;fill:#000080;stroke-width:0.42601761;stroke-miterlimit:4;stroke-dasharray:none;paint-order:stroke fill markers"
         id="path4690"
         inkscape:connector-curvature="0" />
      <path
         d="m 61.048247,68.955518 v -4.647464 h 1.437204 v 0.847194 h 0.04841 q 0.127079,-0.459905 0.41452,-0.683807 0.287441,-0.226927 0.668678,-0.226927 0.102874,0 0.211799,0.01513 0.108924,0.0121 0.202721,0.03934 v 1.28592 q -0.105899,-0.03631 -0.278364,-0.05749 -0.169438,-0.02118 -0.302569,-0.02118 -0.263235,0 -0.475033,0.118003 -0.208773,0.114976 -0.329802,0.323749 -0.118001,0.205747 -0.118001,0.484111 v 2.523428 z"
         style="font-style:normal;font-variant:normal;font-weight:800;font-stretch:normal;font-family:Inter;-inkscape-font-specification:'Inter Ultra-Bold';letter-spacing:-0.79374999px;fill:#000080;stroke-width:0.42601761;stroke-miterlimit:4;stroke-dasharray:none;paint-order:stroke fill markers"
         id="path4692"
         inkscape:connector-curvature="0" />
      <path
         d="m 66.031354,66.607741 h 1.243473 v 4.053345 c 0,0.322099 -0.06612,0.579777 -0.198347,0.773036 -0.130536,0.194953 -0.317861,0.333964 -0.561975,0.417031 -0.242423,0.08477 -0.529768,0.122062 -0.862035,0.111884 -0.0339,-0.0017 -0.06782,-0.0026 -0.101719,-0.0026 -0.0356,0 -0.07798,-0.0026 -0.127139,-0.0076 v -0.940863 c 0.03051,0.0033 0.05764,0.0051 0.08138,0.0051 0.02374,0.0017 0.04747,0.0026 0.0712,0.0026 0.17122,0 0.289887,-0.03136 0.356003,-0.09408 0.06611,-0.06271 0.09916,-0.159355 0.09916,-0.289888 z"
         style="font-style:normal;font-variant:normal;font-weight:800;font-stretch:normal;font-family:Inter;-inkscape-font-specification:'Inter Ultra-Bold';letter-spacing:-0.79374999px;fill:#000080;stroke-width:0.35803705;stroke-miterlimit:4;stroke-dasharray:none;paint-order:stroke fill markers"
         id="path4696"
         inkscape:connector-curvature="0"
         sodipodi:nodetypes="ccscccscccscsc" />
      <path
         d="m 71.296447,67.833167 -1.141752,0.03052 q -0.01779,-0.122062 -0.09663,-0.216145 -0.07882,-0.09663 -0.205972,-0.15003 -0.124594,-0.05594 -0.289885,-0.05594 -0.216149,0 -0.368717,0.08645 -0.150029,0.08646 -0.147485,0.233944 -0.0027,0.114429 0.09154,0.198344 0.09663,0.08391 0.343282,0.134773 l 0.752696,0.142401 q 0.584858,0.111884 0.869662,0.37126 0.287348,0.259373 0.289885,0.686577 -0.0027,0.401774 -0.239025,0.69929 -0.233949,0.297517 -0.640806,0.462805 -0.406864,0.162744 -0.930692,0.162744 -0.836607,0 -1.319758,-0.343289 -0.4806,-0.345832 -0.549256,-0.925607 l 1.228209,-0.03051 q 0.04066,0.213602 0.211053,0.325489 0.170377,0.111884 0.434834,0.111884 0.239032,0 0.389062,-0.089 0.150031,-0.08901 0.152574,-0.236488 -0.0027,-0.132229 -0.116973,-0.211058 -0.114429,-0.08138 -0.358548,-0.127139 l -0.681489,-0.12968 q -0.587409,-0.106795 -0.87475,-0.394147 -0.287348,-0.289888 -0.284803,-0.737434 -0.0027,-0.391604 0.208516,-0.668777 0.21106,-0.279716 0.600115,-0.427203 0.389062,-0.147486 0.917978,-0.147486 0.793381,0 1.251097,0.333116 0.457718,0.330574 0.506034,0.91035 z"
         style="font-style:normal;font-variant:normal;font-weight:800;font-stretch:normal;font-family:Inter;-inkscape-font-specification:'Inter Ultra-Bold';letter-spacing:-0.79374999px;fill:#000080;stroke-width:0.35803705;stroke-miterlimit:4;stroke-dasharray:none;paint-order:stroke fill markers"
         id="path4698"
         inkscape:connector-curvature="0" />
    </g>
  </g>
</svg>
